<svg width="102" height="17" viewBox="0 0 102 17" fill="none" xmlns="http://www.w3.org/2000/svg">
<path d="M34.418 1.72266V10.9609C34.418 10.9805 34.418 11 34.418 11.0195C34.418 12.582 33.8906 13.8353 32.8359 14.7793C31.7812 15.7233 30.3717 16.1953 28.6074 16.1953C28.5749 16.1953 28.5391 16.1953 28.5 16.1953C26.6641 16.1953 25.2383 15.7233 24.2227 14.7793C23.207 13.8353 22.6992 12.5495 22.6992 10.9219V1.72266H25.7168V10.4629C25.7168 11.5697 25.9414 12.3802 26.3906 12.8945C26.8398 13.4023 27.5625 13.6562 28.5586 13.6562C29.5547 13.6562 30.2773 13.3991 30.7266 12.8848C31.1758 12.3704 31.4004 11.5566 31.4004 10.4434V1.72266H34.418ZM40.9414 16H37.9141V1.72266H40.9414V16Z" fill="#4C4C4C"/>
<path d="M59.7988 16H56.9766V9.24219C56.9766 8.78646 56.9798 8.42513 56.9863 8.1582C56.9928 7.89128 57.0384 6.77799 57.123 4.81836H57.0352L53.3535 16H50.5801L47.1426 4.79883H47.0547C47.1784 7.01888 47.2402 8.53906 47.2402 9.35938V16H44.5352V1.72266H48.6562L52.0352 12.6406H52.0938L55.6777 1.72266H59.7988V16ZM71.9473 15.4238C70.9447 15.9382 69.6654 16.1953 68.1094 16.1953C66.3516 16.1953 64.9779 15.7103 63.9883 14.7402C62.9987 13.7702 62.5039 12.3835 62.5039 10.5801C62.5039 8.77669 62.9596 7.38021 63.8711 6.39062C64.7826 5.38151 66.0293 4.87695 67.6113 4.87695C69.1934 4.87695 70.4108 5.31641 71.2637 6.19531C72.1296 7.06771 72.5625 8.2819 72.5625 9.83789V11.2832H65.5215C65.554 12.1361 65.8047 12.8001 66.2734 13.2754C66.7487 13.7441 67.4062 13.9785 68.2461 13.9785C69.4831 13.9785 70.7168 13.6921 71.9473 13.1191V15.4238ZM69.7695 9.30078C69.7565 8.57161 69.5645 8.00521 69.1934 7.60156C68.8288 7.19792 68.3307 6.99609 67.6992 6.99609C67.0677 6.99609 66.5697 7.19466 66.2051 7.5918C65.847 7.98893 65.6419 8.55859 65.5898 9.30078H69.7695ZM81.1855 4.87695C82.4486 4.87695 83.4089 5.22201 84.0664 5.91211C84.7305 6.5957 85.0625 7.58529 85.0625 8.88086V16H82.084V9.62305C82.084 8.82878 81.9408 8.23633 81.6543 7.8457C81.3743 7.45508 80.9316 7.25977 80.3262 7.25977C79.4928 7.25977 78.8906 7.53971 78.5195 8.09961C78.1484 8.65951 77.9629 9.58073 77.9629 10.8633V16H74.9844V5.08203H77.2598L77.6602 6.48828H77.8262C78.1517 5.96094 78.6042 5.56055 79.1836 5.28711C79.7695 5.01367 80.4368 4.87695 81.1855 4.87695ZM98.1484 16H95.8633L95.4629 14.6035H95.3066C94.9876 15.1113 94.5352 15.5052 93.9492 15.7852C93.3633 16.0586 92.696 16.1953 91.9473 16.1953C90.6712 16.1953 89.7044 15.8535 89.0469 15.1699C88.3958 14.4863 88.0703 13.4967 88.0703 12.2012V5.08203H91.0488V11.459C91.0488 12.2533 91.1888 12.8457 91.4688 13.2363C91.7552 13.627 92.2012 13.8223 92.8066 13.8223C93.64 13.8223 94.2422 13.5456 94.6133 12.9922C94.9844 12.4388 95.1699 11.5143 95.1699 10.2188V5.08203H98.1484V16Z" fill="#ED6F3B"/>
<path fill-rule="evenodd" clip-rule="evenodd" d="M17.8857 2.16028C17.8857 2.2864 17.8857 2.72171 17.8717 3.38078L16.5757 3.40519V1.43612H14.0177L13.9717 0C15.1257 0 15.9717 -2.16727e-07 16.2257 0.0244098C17.5217 0.089503 17.9317 0.970296 17.8857 2.16028ZM14.6857 6.06384H11.7597L11.6997 3.0248L14.5957 3.06752L14.6857 6.06384ZM13.7317 3.9178L12.6797 4.10901V4.87793L13.7317 4.92675V3.9178ZM12.7317 9.05813L9.70374 9.14154L9.80774 5.91332H10.9297L10.9577 7.6627L12.7037 7.57319L12.7317 9.05813ZM9.76374 4.15783V2.99632L10.9057 3.0126L10.8897 4.19851L9.76374 4.15783ZM11.0697 10.1586L11.1157 13.8567L9.67574 13.8689L9.76574 10.2237L11.0697 10.1586ZM7.81574 2.96988L8.90374 2.98412L8.94374 6.3588L7.68974 6.37507L7.81574 2.96988ZM3.61574 6.40152L3.66974 2.90072L6.98574 2.94954L6.85174 6.40762L3.61574 6.40152ZM5.87574 3.9178L4.82374 4.10901V4.87793L5.87574 4.92675V3.9178ZM1.54374 1.38323L1.52974 3.67777L0.103738 3.71438C0.103738 2.73188 0.115738 2.04434 0.125738 1.85516C0.205738 0.573634 0.735737 -0.0183077 1.82774 0.0244098C2.02774 0.0244098 2.90174 0.0244098 4.10974 0.0244098L4.09374 1.39544L1.54374 1.38323ZM1.45974 15.5125L3.92774 15.5227L3.91174 16.9466C2.91174 16.9466 2.16774 16.9344 1.86574 16.9222C0.485738 16.8653 -0.034262 15.9702 0.00173802 14.8352C0.013738 14.4487 0.023738 14.0032 0.033738 13.515L1.47174 13.5435L1.45974 15.5125ZM3.60774 7.53048L4.94374 7.5793L4.91574 9.27782L3.59174 9.31444L3.60774 7.53048ZM3.56774 10.5471L6.72974 10.3864V13.8852L3.52974 13.9117L3.56774 10.5471ZM4.56774 12.5691L5.61974 12.6159V11.5988L4.56774 11.79V12.5691ZM5.87774 9.25138L5.82774 7.64236L8.94774 7.74813L8.87774 9.17205L5.87774 9.25138ZM8.91174 10.2685V13.8852L7.52574 13.8954V10.3397L8.91174 10.2685ZM12.9437 11.5907L11.9037 11.5276V10.1159L12.9257 10.065L12.9437 11.5907ZM14.7157 7.11551L14.8197 10.9804L13.6637 10.9438L13.4237 7.04431L14.7157 7.11551ZM14.8437 12.2579L14.8857 13.8242L12.0137 13.8486L12.1257 12.1989L14.8437 12.2579ZM16.5297 13.8323L17.8437 13.8567C17.8437 14.4405 17.8437 14.9613 17.8437 15.3905C17.8437 16.5418 16.9777 17.0544 15.5277 16.9954C15.3417 16.9954 14.9937 16.9812 14.5277 16.9771L14.4837 15.5654H16.5277L16.5297 13.8323Z" fill="black"/>
</svg>
